<mxfile host="app.diagrams.net" modified="2023-11-23T09:36:13.482Z" agent="Mozilla/5.0 (Windows NT 10.0; Win64; x64) AppleWebKit/537.36 (KHTML, like Gecko) Chrome/119.0.0.0 Safari/537.36" version="21.6.6" etag="uh1Wbbv_f5XNAaDU0p5g" type="github">
  <diagram name="Page-1" id="bZ22wts9ZL9CsZyptoK8">
    <mxGraphModel>
      <root>
        <mxCell id="0" />
        <mxCell id="1" parent="0" />
      </root>
    </mxGraphModel>
  </diagram>
</mxfile>
